%TF.GenerationSoftware,KiCad,Pcbnew,10.0.6*%
%TF.CreationDate,2026-10-08T22:27:00+01:00*%
%TF.ProjectId,Test,54657374-2e6b-4696-9361-645f70636258,rev?*%
%TF.SameCoordinates,Original*%
%TF.FileFunction,Legend,Top*%
%TF.FilePolarity,Positive*%
%FSLAX46Y46*%
G04 Gerber Fmt 4.6, Leading zero omitted, Abs format (unit mm)*
G04 Created by KiCad (PCBNEW 10.0.6) date 2026-10-08 22:27:00*
%MOMM*%
%LPD*%
G01*
G04 APERTURE LIST*
%ADD10C,0.101600*%
%ADD11C,0.150000*%
%ADD12C,0.127000*%
%ADD13C,0.100000*%
%ADD14C,0.504000*%
%ADD15C,0.120000*%
G04 APERTURE END LIST*
D10*
X153023479Y-84188809D02*
X153537526Y-84188809D01*
X153537526Y-84188809D02*
X153598002Y-84158571D01*
X153598002Y-84158571D02*
X153628241Y-84128333D01*
X153628241Y-84128333D02*
X153658479Y-84067857D01*
X153658479Y-84067857D02*
X153658479Y-83946904D01*
X153658479Y-83946904D02*
X153628241Y-83886428D01*
X153628241Y-83886428D02*
X153598002Y-83856190D01*
X153598002Y-83856190D02*
X153537526Y-83825952D01*
X153537526Y-83825952D02*
X153023479Y-83825952D01*
X153658479Y-83190952D02*
X153658479Y-83553809D01*
X153658479Y-83372381D02*
X153023479Y-83372381D01*
X153023479Y-83372381D02*
X153114193Y-83432857D01*
X153114193Y-83432857D02*
X153174669Y-83493333D01*
X153174669Y-83493333D02*
X153204907Y-83553809D01*
D11*
X128414819Y-64761904D02*
X129224342Y-64761904D01*
X129224342Y-64761904D02*
X129319580Y-64714285D01*
X129319580Y-64714285D02*
X129367200Y-64666666D01*
X129367200Y-64666666D02*
X129414819Y-64571428D01*
X129414819Y-64571428D02*
X129414819Y-64380952D01*
X129414819Y-64380952D02*
X129367200Y-64285714D01*
X129367200Y-64285714D02*
X129319580Y-64238095D01*
X129319580Y-64238095D02*
X129224342Y-64190476D01*
X129224342Y-64190476D02*
X128414819Y-64190476D01*
X128510057Y-63761904D02*
X128462438Y-63714285D01*
X128462438Y-63714285D02*
X128414819Y-63619047D01*
X128414819Y-63619047D02*
X128414819Y-63380952D01*
X128414819Y-63380952D02*
X128462438Y-63285714D01*
X128462438Y-63285714D02*
X128510057Y-63238095D01*
X128510057Y-63238095D02*
X128605295Y-63190476D01*
X128605295Y-63190476D02*
X128700533Y-63190476D01*
X128700533Y-63190476D02*
X128843390Y-63238095D01*
X128843390Y-63238095D02*
X129414819Y-63809523D01*
X129414819Y-63809523D02*
X129414819Y-63190476D01*
X135262066Y-85191019D02*
X135262066Y-85905304D01*
X135262066Y-85905304D02*
X135214447Y-86048161D01*
X135214447Y-86048161D02*
X135119209Y-86143400D01*
X135119209Y-86143400D02*
X134976352Y-86191019D01*
X134976352Y-86191019D02*
X134881114Y-86191019D01*
X136262066Y-86191019D02*
X135690638Y-86191019D01*
X135976352Y-86191019D02*
X135976352Y-85191019D01*
X135976352Y-85191019D02*
X135881114Y-85333876D01*
X135881114Y-85333876D02*
X135785876Y-85429114D01*
X135785876Y-85429114D02*
X135690638Y-85476733D01*
X131480667Y-76526438D02*
X131414000Y-76478819D01*
X131414000Y-76478819D02*
X131314000Y-76478819D01*
X131314000Y-76478819D02*
X131214000Y-76526438D01*
X131214000Y-76526438D02*
X131147334Y-76621676D01*
X131147334Y-76621676D02*
X131114000Y-76716914D01*
X131114000Y-76716914D02*
X131080667Y-76907390D01*
X131080667Y-76907390D02*
X131080667Y-77050247D01*
X131080667Y-77050247D02*
X131114000Y-77240723D01*
X131114000Y-77240723D02*
X131147334Y-77335961D01*
X131147334Y-77335961D02*
X131214000Y-77431200D01*
X131214000Y-77431200D02*
X131314000Y-77478819D01*
X131314000Y-77478819D02*
X131380667Y-77478819D01*
X131380667Y-77478819D02*
X131480667Y-77431200D01*
X131480667Y-77431200D02*
X131514000Y-77383580D01*
X131514000Y-77383580D02*
X131514000Y-77050247D01*
X131514000Y-77050247D02*
X131380667Y-77050247D01*
X131814000Y-77478819D02*
X131814000Y-76478819D01*
X131814000Y-76478819D02*
X132214000Y-77478819D01*
X132214000Y-77478819D02*
X132214000Y-76478819D01*
X132547333Y-77478819D02*
X132547333Y-76478819D01*
X132547333Y-76478819D02*
X132714000Y-76478819D01*
X132714000Y-76478819D02*
X132814000Y-76526438D01*
X132814000Y-76526438D02*
X132880667Y-76621676D01*
X132880667Y-76621676D02*
X132914000Y-76716914D01*
X132914000Y-76716914D02*
X132947333Y-76907390D01*
X132947333Y-76907390D02*
X132947333Y-77050247D01*
X132947333Y-77050247D02*
X132914000Y-77240723D01*
X132914000Y-77240723D02*
X132880667Y-77335961D01*
X132880667Y-77335961D02*
X132814000Y-77431200D01*
X132814000Y-77431200D02*
X132714000Y-77478819D01*
X132714000Y-77478819D02*
X132547333Y-77478819D01*
X133620666Y-76478819D02*
X133854000Y-77478819D01*
X133854000Y-77478819D02*
X134087333Y-76478819D01*
X134320666Y-77478819D02*
X134320666Y-76478819D01*
X134320666Y-76478819D02*
X134487333Y-76478819D01*
X134487333Y-76478819D02*
X134587333Y-76526438D01*
X134587333Y-76526438D02*
X134654000Y-76621676D01*
X134654000Y-76621676D02*
X134687333Y-76716914D01*
X134687333Y-76716914D02*
X134720666Y-76907390D01*
X134720666Y-76907390D02*
X134720666Y-77050247D01*
X134720666Y-77050247D02*
X134687333Y-77240723D01*
X134687333Y-77240723D02*
X134654000Y-77335961D01*
X134654000Y-77335961D02*
X134587333Y-77431200D01*
X134587333Y-77431200D02*
X134487333Y-77478819D01*
X134487333Y-77478819D02*
X134320666Y-77478819D01*
X135020666Y-77478819D02*
X135020666Y-76478819D01*
X135020666Y-76478819D02*
X135187333Y-76478819D01*
X135187333Y-76478819D02*
X135287333Y-76526438D01*
X135287333Y-76526438D02*
X135354000Y-76621676D01*
X135354000Y-76621676D02*
X135387333Y-76716914D01*
X135387333Y-76716914D02*
X135420666Y-76907390D01*
X135420666Y-76907390D02*
X135420666Y-77050247D01*
X135420666Y-77050247D02*
X135387333Y-77240723D01*
X135387333Y-77240723D02*
X135354000Y-77335961D01*
X135354000Y-77335961D02*
X135287333Y-77431200D01*
X135287333Y-77431200D02*
X135187333Y-77478819D01*
X135187333Y-77478819D02*
X135020666Y-77478819D01*
X136260666Y-77431200D02*
X136360666Y-77478819D01*
X136360666Y-77478819D02*
X136527333Y-77478819D01*
X136527333Y-77478819D02*
X136593999Y-77431200D01*
X136593999Y-77431200D02*
X136627333Y-77383580D01*
X136627333Y-77383580D02*
X136660666Y-77288342D01*
X136660666Y-77288342D02*
X136660666Y-77193104D01*
X136660666Y-77193104D02*
X136627333Y-77097866D01*
X136627333Y-77097866D02*
X136593999Y-77050247D01*
X136593999Y-77050247D02*
X136527333Y-77002628D01*
X136527333Y-77002628D02*
X136393999Y-76955009D01*
X136393999Y-76955009D02*
X136327333Y-76907390D01*
X136327333Y-76907390D02*
X136293999Y-76859771D01*
X136293999Y-76859771D02*
X136260666Y-76764533D01*
X136260666Y-76764533D02*
X136260666Y-76669295D01*
X136260666Y-76669295D02*
X136293999Y-76574057D01*
X136293999Y-76574057D02*
X136327333Y-76526438D01*
X136327333Y-76526438D02*
X136393999Y-76478819D01*
X136393999Y-76478819D02*
X136560666Y-76478819D01*
X136560666Y-76478819D02*
X136660666Y-76526438D01*
X137360666Y-77383580D02*
X137327333Y-77431200D01*
X137327333Y-77431200D02*
X137227333Y-77478819D01*
X137227333Y-77478819D02*
X137160666Y-77478819D01*
X137160666Y-77478819D02*
X137060666Y-77431200D01*
X137060666Y-77431200D02*
X136994000Y-77335961D01*
X136994000Y-77335961D02*
X136960666Y-77240723D01*
X136960666Y-77240723D02*
X136927333Y-77050247D01*
X136927333Y-77050247D02*
X136927333Y-76907390D01*
X136927333Y-76907390D02*
X136960666Y-76716914D01*
X136960666Y-76716914D02*
X136994000Y-76621676D01*
X136994000Y-76621676D02*
X137060666Y-76526438D01*
X137060666Y-76526438D02*
X137160666Y-76478819D01*
X137160666Y-76478819D02*
X137227333Y-76478819D01*
X137227333Y-76478819D02*
X137327333Y-76526438D01*
X137327333Y-76526438D02*
X137360666Y-76574057D01*
X137994000Y-77478819D02*
X137660666Y-77478819D01*
X137660666Y-77478819D02*
X137660666Y-76478819D01*
X138911000Y-77431200D02*
X139011000Y-77478819D01*
X139011000Y-77478819D02*
X139177667Y-77478819D01*
X139177667Y-77478819D02*
X139244333Y-77431200D01*
X139244333Y-77431200D02*
X139277667Y-77383580D01*
X139277667Y-77383580D02*
X139311000Y-77288342D01*
X139311000Y-77288342D02*
X139311000Y-77193104D01*
X139311000Y-77193104D02*
X139277667Y-77097866D01*
X139277667Y-77097866D02*
X139244333Y-77050247D01*
X139244333Y-77050247D02*
X139177667Y-77002628D01*
X139177667Y-77002628D02*
X139044333Y-76955009D01*
X139044333Y-76955009D02*
X138977667Y-76907390D01*
X138977667Y-76907390D02*
X138944333Y-76859771D01*
X138944333Y-76859771D02*
X138911000Y-76764533D01*
X138911000Y-76764533D02*
X138911000Y-76669295D01*
X138911000Y-76669295D02*
X138944333Y-76574057D01*
X138944333Y-76574057D02*
X138977667Y-76526438D01*
X138977667Y-76526438D02*
X139044333Y-76478819D01*
X139044333Y-76478819D02*
X139211000Y-76478819D01*
X139211000Y-76478819D02*
X139311000Y-76526438D01*
X139611000Y-77478819D02*
X139611000Y-76478819D01*
X139611000Y-76478819D02*
X139777667Y-76478819D01*
X139777667Y-76478819D02*
X139877667Y-76526438D01*
X139877667Y-76526438D02*
X139944334Y-76621676D01*
X139944334Y-76621676D02*
X139977667Y-76716914D01*
X139977667Y-76716914D02*
X140011000Y-76907390D01*
X140011000Y-76907390D02*
X140011000Y-77050247D01*
X140011000Y-77050247D02*
X139977667Y-77240723D01*
X139977667Y-77240723D02*
X139944334Y-77335961D01*
X139944334Y-77335961D02*
X139877667Y-77431200D01*
X139877667Y-77431200D02*
X139777667Y-77478819D01*
X139777667Y-77478819D02*
X139611000Y-77478819D01*
X140277667Y-77193104D02*
X140611000Y-77193104D01*
X140211000Y-77478819D02*
X140444334Y-76478819D01*
X140444334Y-76478819D02*
X140677667Y-77478819D01*
X108586667Y-72533200D02*
X108729524Y-72580819D01*
X108729524Y-72580819D02*
X108967619Y-72580819D01*
X108967619Y-72580819D02*
X109062857Y-72533200D01*
X109062857Y-72533200D02*
X109110476Y-72485580D01*
X109110476Y-72485580D02*
X109158095Y-72390342D01*
X109158095Y-72390342D02*
X109158095Y-72295104D01*
X109158095Y-72295104D02*
X109110476Y-72199866D01*
X109110476Y-72199866D02*
X109062857Y-72152247D01*
X109062857Y-72152247D02*
X108967619Y-72104628D01*
X108967619Y-72104628D02*
X108777143Y-72057009D01*
X108777143Y-72057009D02*
X108681905Y-72009390D01*
X108681905Y-72009390D02*
X108634286Y-71961771D01*
X108634286Y-71961771D02*
X108586667Y-71866533D01*
X108586667Y-71866533D02*
X108586667Y-71771295D01*
X108586667Y-71771295D02*
X108634286Y-71676057D01*
X108634286Y-71676057D02*
X108681905Y-71628438D01*
X108681905Y-71628438D02*
X108777143Y-71580819D01*
X108777143Y-71580819D02*
X109015238Y-71580819D01*
X109015238Y-71580819D02*
X109158095Y-71628438D01*
X109491429Y-71580819D02*
X109729524Y-72580819D01*
X109729524Y-72580819D02*
X109920000Y-71866533D01*
X109920000Y-71866533D02*
X110110476Y-72580819D01*
X110110476Y-72580819D02*
X110348572Y-71580819D01*
X111253333Y-72580819D02*
X110681905Y-72580819D01*
X110967619Y-72580819D02*
X110967619Y-71580819D01*
X110967619Y-71580819D02*
X110872381Y-71723676D01*
X110872381Y-71723676D02*
X110777143Y-71818914D01*
X110777143Y-71818914D02*
X110681905Y-71866533D01*
X145914819Y-116833333D02*
X146629104Y-116833333D01*
X146629104Y-116833333D02*
X146771961Y-116880952D01*
X146771961Y-116880952D02*
X146867200Y-116976190D01*
X146867200Y-116976190D02*
X146914819Y-117119047D01*
X146914819Y-117119047D02*
X146914819Y-117214285D01*
X146010057Y-116404761D02*
X145962438Y-116357142D01*
X145962438Y-116357142D02*
X145914819Y-116261904D01*
X145914819Y-116261904D02*
X145914819Y-116023809D01*
X145914819Y-116023809D02*
X145962438Y-115928571D01*
X145962438Y-115928571D02*
X146010057Y-115880952D01*
X146010057Y-115880952D02*
X146105295Y-115833333D01*
X146105295Y-115833333D02*
X146200533Y-115833333D01*
X146200533Y-115833333D02*
X146343390Y-115880952D01*
X146343390Y-115880952D02*
X146914819Y-116452380D01*
X146914819Y-116452380D02*
X146914819Y-115833333D01*
X136523333Y-53534819D02*
X136190000Y-53058628D01*
X135951905Y-53534819D02*
X135951905Y-52534819D01*
X135951905Y-52534819D02*
X136332857Y-52534819D01*
X136332857Y-52534819D02*
X136428095Y-52582438D01*
X136428095Y-52582438D02*
X136475714Y-52630057D01*
X136475714Y-52630057D02*
X136523333Y-52725295D01*
X136523333Y-52725295D02*
X136523333Y-52868152D01*
X136523333Y-52868152D02*
X136475714Y-52963390D01*
X136475714Y-52963390D02*
X136428095Y-53011009D01*
X136428095Y-53011009D02*
X136332857Y-53058628D01*
X136332857Y-53058628D02*
X135951905Y-53058628D01*
X137475714Y-53534819D02*
X136904286Y-53534819D01*
X137190000Y-53534819D02*
X137190000Y-52534819D01*
X137190000Y-52534819D02*
X137094762Y-52677676D01*
X137094762Y-52677676D02*
X136999524Y-52772914D01*
X136999524Y-52772914D02*
X136904286Y-52820533D01*
X119586667Y-108533200D02*
X119729524Y-108580819D01*
X119729524Y-108580819D02*
X119967619Y-108580819D01*
X119967619Y-108580819D02*
X120062857Y-108533200D01*
X120062857Y-108533200D02*
X120110476Y-108485580D01*
X120110476Y-108485580D02*
X120158095Y-108390342D01*
X120158095Y-108390342D02*
X120158095Y-108295104D01*
X120158095Y-108295104D02*
X120110476Y-108199866D01*
X120110476Y-108199866D02*
X120062857Y-108152247D01*
X120062857Y-108152247D02*
X119967619Y-108104628D01*
X119967619Y-108104628D02*
X119777143Y-108057009D01*
X119777143Y-108057009D02*
X119681905Y-108009390D01*
X119681905Y-108009390D02*
X119634286Y-107961771D01*
X119634286Y-107961771D02*
X119586667Y-107866533D01*
X119586667Y-107866533D02*
X119586667Y-107771295D01*
X119586667Y-107771295D02*
X119634286Y-107676057D01*
X119634286Y-107676057D02*
X119681905Y-107628438D01*
X119681905Y-107628438D02*
X119777143Y-107580819D01*
X119777143Y-107580819D02*
X120015238Y-107580819D01*
X120015238Y-107580819D02*
X120158095Y-107628438D01*
X120491429Y-107580819D02*
X120729524Y-108580819D01*
X120729524Y-108580819D02*
X120920000Y-107866533D01*
X120920000Y-107866533D02*
X121110476Y-108580819D01*
X121110476Y-108580819D02*
X121348572Y-107580819D01*
X121681905Y-107676057D02*
X121729524Y-107628438D01*
X121729524Y-107628438D02*
X121824762Y-107580819D01*
X121824762Y-107580819D02*
X122062857Y-107580819D01*
X122062857Y-107580819D02*
X122158095Y-107628438D01*
X122158095Y-107628438D02*
X122205714Y-107676057D01*
X122205714Y-107676057D02*
X122253333Y-107771295D01*
X122253333Y-107771295D02*
X122253333Y-107866533D01*
X122253333Y-107866533D02*
X122205714Y-108009390D01*
X122205714Y-108009390D02*
X121634286Y-108580819D01*
X121634286Y-108580819D02*
X122253333Y-108580819D01*
%TO.C,U1*%
D12*
X154730000Y-92089000D02*
X154730000Y-74944000D01*
X156635000Y-93994000D02*
X170605000Y-93994000D01*
X159125000Y-73039000D02*
X159128728Y-72028728D01*
X159628728Y-71529000D02*
X167624000Y-71529000D01*
X168124000Y-72029000D02*
X168124000Y-73039000D01*
D13*
X170605000Y-73039000D02*
X156635000Y-73039000D01*
D12*
X170605000Y-73039000D02*
X156635000Y-73039000D01*
X172510000Y-92089000D02*
X172510000Y-74944000D01*
X154730000Y-74944000D02*
G75*
G02*
X156635000Y-73039000I1905000J0D01*
G01*
X156635000Y-93994000D02*
G75*
G02*
X154730000Y-92089000I1J1905001D01*
G01*
X159128728Y-72028728D02*
G75*
G02*
X159628728Y-71529028I499972J-272D01*
G01*
X167624000Y-71529000D02*
G75*
G02*
X168124000Y-72029000I0J-500000D01*
G01*
X170605000Y-73039000D02*
G75*
G02*
X172510000Y-74944000I0J-1905000D01*
G01*
X172510000Y-92089000D02*
G75*
G02*
X170605000Y-93994000I-1905001J1D01*
G01*
D14*
X154922000Y-73280000D02*
G75*
G02*
X154418000Y-73280000I-252000J0D01*
G01*
X154418000Y-73280000D02*
G75*
G02*
X154922000Y-73280000I252000J0D01*
G01*
X156065000Y-74160000D02*
G75*
G02*
X155561000Y-74160000I-252000J0D01*
G01*
X155561000Y-74160000D02*
G75*
G02*
X156065000Y-74160000I252000J0D01*
G01*
%TO.C,U2*%
D15*
X129860000Y-66160000D02*
X129860000Y-64550000D01*
X129860000Y-66160000D02*
X131860000Y-66160000D01*
X130140000Y-60120000D02*
X142400000Y-60120000D01*
X130140000Y-65870000D02*
X130140000Y-60130000D01*
X142400000Y-60120000D02*
X142400000Y-65880000D01*
X142400000Y-65880000D02*
X130150000Y-65880000D01*
%TO.C,J1*%
X122108000Y-73468000D02*
X149540000Y-73468000D01*
X122108000Y-78675000D02*
X149540000Y-78675000D01*
X122108000Y-95566000D02*
X149540000Y-95566000D01*
X122108000Y-100646000D02*
X122235000Y-73468000D01*
X130684000Y-76195000D02*
X130684000Y-74865000D01*
X132014000Y-76195000D02*
X130684000Y-76195000D01*
X133284000Y-73535000D02*
X140964000Y-73535000D01*
X133284000Y-76195000D02*
X133284000Y-73535000D01*
X133284000Y-76195000D02*
X140964000Y-76195000D01*
X140964000Y-76195000D02*
X140964000Y-73535000D01*
X149540000Y-100646000D02*
X122108000Y-100646000D01*
X149540000Y-100646000D02*
X149540000Y-73468000D01*
%TO.C,SW1*%
X102935000Y-73015000D02*
X116905000Y-73015000D01*
X102935000Y-86985000D02*
X102935000Y-73015000D01*
X116905000Y-73015000D02*
X116905000Y-86985000D01*
X116905000Y-86985000D02*
X102935000Y-86985000D01*
%TO.C,J2*%
X147460000Y-117880000D02*
X147460000Y-116500000D01*
X148840000Y-117880000D02*
X147460000Y-117880000D01*
X150110000Y-115120000D02*
X168000000Y-115120000D01*
X150110000Y-117880000D02*
X150110000Y-115120000D01*
X150110000Y-117880000D02*
X168000000Y-117880000D01*
X168000000Y-117880000D02*
X168000000Y-115120000D01*
%TO.C,R1*%
X133820000Y-55000000D02*
X134770000Y-55000000D01*
X139560000Y-55000000D02*
X138610000Y-55000000D01*
X134770000Y-54080000D02*
X138610000Y-54080000D01*
X138610000Y-55920000D01*
X134770000Y-55920000D01*
X134770000Y-54080000D01*
%TO.C,SW2*%
X113935000Y-109015000D02*
X127905000Y-109015000D01*
X113935000Y-122985000D02*
X113935000Y-109015000D01*
X127905000Y-109015000D02*
X127905000Y-122985000D01*
X127905000Y-122985000D02*
X113935000Y-122985000D01*
%TD*%
M02*
