%TF.GenerationSoftware,KiCad,Pcbnew,10.0.6*%
%TF.CreationDate,2026-10-08T22:27:00+01:00*%
%TF.ProjectId,Test,54657374-2e6b-4696-9361-645f70636258,rev?*%
%TF.SameCoordinates,Original*%
%TF.FileFunction,Copper,L1,Top*%
%TF.FilePolarity,Positive*%
%FSLAX46Y46*%
G04 Gerber Fmt 4.6, Leading zero omitted, Abs format (unit mm)*
G04 Created by KiCad (PCBNEW 10.0.6) date 2026-10-08 22:27:00*
%MOMM*%
%LPD*%
G01*
G04 APERTURE LIST*
G04 Aperture macros list*
%AMRoundRect*
0 Rectangle with rounded corners*
0 $1 Rounding radius*
0 $2 $3 $4 $5 $6 $7 $8 $9 X,Y pos of 4 corners*
0 Add a 4 corners polygon primitive as box body*
4,1,4,$2,$3,$4,$5,$6,$7,$8,$9,$2,$3,0*
0 Add four circle primitives for the rounded corners*
1,1,$1+$1,$2,$3*
1,1,$1+$1,$4,$5*
1,1,$1+$1,$6,$7*
1,1,$1+$1,$8,$9*
0 Add four rect primitives between the rounded corners*
20,1,$1+$1,$2,$3,$4,$5,0*
20,1,$1+$1,$4,$5,$6,$7,0*
20,1,$1+$1,$6,$7,$8,$9,0*
20,1,$1+$1,$8,$9,$2,$3,0*%
G04 Aperture macros list end*
%TA.AperFunction,SMDPad,CuDef*%
%ADD10RoundRect,0.152400X1.063600X0.609600X-1.063600X0.609600X-1.063600X-0.609600X1.063600X-0.609600X0*%
%TD*%
%TA.AperFunction,ComponentPad*%
%ADD11C,1.524000*%
%TD*%
%TA.AperFunction,SMDPad,CuDef*%
%ADD12RoundRect,0.152400X-1.063600X-0.609600X1.063600X-0.609600X1.063600X0.609600X-1.063600X0.609600X0*%
%TD*%
%TA.AperFunction,ComponentPad*%
%ADD13R,1.500000X1.500000*%
%TD*%
%TA.AperFunction,ComponentPad*%
%ADD14C,1.500000*%
%TD*%
%TA.AperFunction,ComponentPad*%
%ADD15R,1.700000X1.700000*%
%TD*%
%TA.AperFunction,ComponentPad*%
%ADD16O,1.700000X1.700000*%
%TD*%
%TA.AperFunction,ComponentPad*%
%ADD17C,2.200000*%
%TD*%
%TA.AperFunction,ComponentPad*%
%ADD18C,1.700000*%
%TD*%
%TA.AperFunction,ComponentPad*%
%ADD19C,1.400000*%
%TD*%
%TA.AperFunction,Conductor*%
%ADD20C,0.200000*%
%TD*%
G04 APERTURE END LIST*
D10*
%TO.P,U1,1,D0_1*%
%TO.N,unconnected-(U1-D0-Pad1)*%
X155165000Y-75960000D03*
D11*
X156000000Y-75960000D03*
D10*
%TO.P,U1,2,D1_2*%
%TO.N,Net-(U1-D1)*%
X155165000Y-78500000D03*
D11*
X156000000Y-78500000D03*
D10*
%TO.P,U1,3,D2_3*%
%TO.N,Net-(U1-D2)*%
X155165000Y-81040000D03*
D11*
X156000000Y-81040000D03*
D10*
%TO.P,U1,4,D3_4*%
%TO.N,Net-(U1-D3)*%
X155165000Y-83580000D03*
D11*
X156000000Y-83580000D03*
D10*
%TO.P,U1,5,D4_5*%
%TO.N,Net-(J1-Pin_3)*%
X155165000Y-86120000D03*
D11*
X156000000Y-86120000D03*
D10*
%TO.P,U1,6,D5_6*%
%TO.N,Net-(J1-Pin_4)*%
X155165000Y-88660000D03*
D11*
X156000000Y-88660000D03*
D10*
%TO.P,U1,7,D6_7*%
%TO.N,unconnected-(U1-D6-Pad7)*%
X155165000Y-91200000D03*
D11*
X156000000Y-91200000D03*
%TO.P,U1,8,D7_8*%
%TO.N,unconnected-(U1-D7-Pad8)*%
X171240000Y-91200000D03*
D12*
X172075000Y-91200000D03*
D11*
%TO.P,U1,9,D8_9*%
%TO.N,unconnected-(U1-D8-Pad9)*%
X171240000Y-88660000D03*
D12*
X172075000Y-88660000D03*
D11*
%TO.P,U1,10,D9/BOOT_10*%
%TO.N,unconnected-(U1-D9{slash}BOOT-Pad10)*%
X171240000Y-86120000D03*
D12*
X172075000Y-86120000D03*
D11*
%TO.P,U1,11,D10_11*%
%TO.N,unconnected-(U1-D10-Pad11)*%
X171240000Y-83580000D03*
D12*
X172075000Y-83580000D03*
D11*
%TO.P,U1,12,3V3_OUT_12*%
%TO.N,Net-(J1-Pin_2)*%
X171240000Y-81040000D03*
D12*
X172075000Y-81040000D03*
D11*
%TO.P,U1,13,GND_13*%
%TO.N,Net-(J1-Pin_1)*%
X171240000Y-78500000D03*
D12*
X172075000Y-78500000D03*
D11*
%TO.P,U1,14,VBUS_14*%
%TO.N,unconnected-(U1-VBUS-Pad14)*%
X171240000Y-75960000D03*
D12*
X172075000Y-75960000D03*
%TD*%
D13*
%TO.P,U2,1,VDD_1*%
%TO.N,Net-(J1-Pin_2)*%
X132460000Y-63000000D03*
D14*
%TO.P,U2,2,DATA_2*%
%TO.N,Net-(U1-D1)*%
X135000000Y-63000000D03*
%TO.P,U2,3,NC_3*%
%TO.N,unconnected-(U2-NC-Pad3)*%
X137540000Y-63000000D03*
%TO.P,U2,4,GND_4*%
%TO.N,Net-(J2-Pin_2)*%
X140080000Y-63000000D03*
%TD*%
D15*
%TO.P,J1,1,Pin_1_1*%
%TO.N,Net-(J1-Pin_1)*%
X132014000Y-74865000D03*
D16*
%TO.P,J1,2,Pin_2_2*%
%TO.N,Net-(J1-Pin_2)*%
X134554000Y-74865000D03*
%TO.P,J1,3,Pin_3_3*%
%TO.N,Net-(J1-Pin_3)*%
X137094000Y-74865000D03*
%TO.P,J1,4,Pin_4_4*%
%TO.N,Net-(J1-Pin_4)*%
X139634000Y-74865000D03*
%TD*%
D17*
%TO.P,SW1,1,1_1*%
%TO.N,Net-(U1-D2)*%
X112460000Y-74920000D03*
%TO.P,SW1,2,2_2*%
%TO.N,Net-(J1-Pin_1)*%
X106110000Y-77460000D03*
%TD*%
D15*
%TO.P,J2,1,Pin_1_1*%
%TO.N,Net-(J1-Pin_2)*%
X148840000Y-116500000D03*
D18*
%TO.P,J2,2,Pin_2_2*%
%TO.N,Net-(J2-Pin_2)*%
X151380000Y-116500000D03*
%TO.P,J2,3,Pin_3_3*%
%TO.N,Net-(J1-Pin_3)*%
X153920000Y-116500000D03*
%TO.P,J2,4,Pin_4_4*%
%TO.N,Net-(J1-Pin_4)*%
X156460000Y-116500000D03*
%TO.P,J2,5,Pin_5_5*%
%TO.N,unconnected-(J2-Pin_5-Pad5)*%
X159000000Y-116500000D03*
%TO.P,J2,6,Pin_6_6*%
%TO.N,unconnected-(J2-Pin_6-Pad6)*%
X161540000Y-116500000D03*
%TO.P,J2,7,Pin_7_7*%
%TO.N,unconnected-(J2-Pin_7-Pad7)*%
X164080000Y-116500000D03*
%TO.P,J2,8,Pin_8_8*%
%TO.N,unconnected-(J2-Pin_8-Pad8)*%
X166620000Y-116500000D03*
%TD*%
D19*
%TO.P,R1,1*%
%TO.N,Net-(J1-Pin_2)*%
X132880000Y-55000000D03*
%TO.P,R1,2*%
%TO.N,Net-(U1-D1)*%
X140500000Y-55000000D03*
%TD*%
D17*
%TO.P,SW2,1,1_1*%
%TO.N,Net-(U1-D3)*%
X123460000Y-110920000D03*
%TO.P,SW2,2,2_2*%
%TO.N,Net-(J1-Pin_1)*%
X117110000Y-113460000D03*
%TD*%
%TO.N,Net-(J1-Pin_2)*%
D20*
X137102000Y-82102000D02*
X134554000Y-79554000D01*
X134554000Y-79554000D02*
X134554000Y-74865000D01*
X171240000Y-81040000D02*
X170178000Y-82102000D01*
X170178000Y-82102000D02*
X137102000Y-82102000D01*
%TO.N,Net-(J1-Pin_3)*%
X130864000Y-73715000D02*
X131264000Y-73315000D01*
X130864000Y-76429686D02*
X130864000Y-73715000D01*
X135544000Y-73315000D02*
X137094000Y-74865000D01*
X131264000Y-73315000D02*
X135544000Y-73315000D01*
X156000000Y-86120000D02*
X140554314Y-86120000D01*
X140554314Y-86120000D02*
X130864000Y-76429686D01*
%TO.N,Net-(J1-Pin_1)*%
X171240000Y-78500000D02*
X170178000Y-79562000D01*
X139924654Y-79562000D02*
X135704000Y-75341346D01*
X135030346Y-73715000D02*
X133164000Y-73715000D01*
X135704000Y-74388654D02*
X135030346Y-73715000D01*
X133164000Y-73715000D02*
X132014000Y-74865000D01*
X135704000Y-75341346D02*
X135704000Y-74388654D01*
X170178000Y-79562000D02*
X139924654Y-79562000D01*
%TO.N,Net-(U1-D1)*%
X156000000Y-78500000D02*
X144895346Y-78500000D01*
X144895346Y-78500000D02*
X135000000Y-68604654D01*
X135000000Y-68604654D02*
X135000000Y-63000000D01*
%TD*%
M02*
