%TF.GenerationSoftware,KiCad,Pcbnew,10.0.6*%
%TF.CreationDate,2026-10-08T22:27:00+01:00*%
%TF.ProjectId,Test,54657374-2e6b-4696-9361-645f70636258,rev?*%
%TF.SameCoordinates,Original*%
%TF.FileFunction,Profile,NP*%
%FSLAX46Y46*%
G04 Gerber Fmt 4.6, Leading zero omitted, Abs format (unit mm)*
G04 Created by KiCad (PCBNEW 10.0.6) date 2026-10-08 22:27:00*
%MOMM*%
%LPD*%
G01*
G04 APERTURE LIST*
%TA.AperFunction,Profile*%
%ADD10C,0.050000*%
%TD*%
G04 APERTURE END LIST*
D10*
X78500000Y-69000000D02*
X78500000Y-74000000D01*
X78500000Y-74000000D02*
X84500000Y-74000000D01*
X84500000Y-74000000D02*
X84500000Y-78500000D01*
X84500000Y-78500000D02*
X90000000Y-78500000D01*
X88500000Y-137500000D02*
X88500000Y-150000000D01*
X88500000Y-150000000D02*
X100000000Y-150000000D01*
X90000000Y-78500000D02*
X90000000Y-83000000D01*
X90000000Y-83000000D02*
X95500000Y-83000000D01*
X93000000Y-126000000D02*
X93000000Y-137500000D01*
X93000000Y-137500000D02*
X88500000Y-137500000D01*
X95500000Y-83000000D02*
X95500000Y-88000000D01*
X95500000Y-88000000D02*
X100500000Y-88000000D01*
X98500000Y-114000000D02*
X98500000Y-126000000D01*
X98500000Y-126000000D02*
X93000000Y-126000000D01*
X100500000Y-88000000D02*
X100500000Y-92500000D01*
X100500000Y-92500000D02*
X105500000Y-92500000D01*
X104000000Y-105500000D02*
X104000000Y-114000000D01*
X104000000Y-114000000D02*
X98500000Y-114000000D01*
X105500000Y-92500000D02*
X105500000Y-97000000D01*
X105500000Y-97000000D02*
X110000000Y-97000000D01*
X109000000Y-145000000D02*
X109000000Y-150000000D01*
X109000000Y-145000000D02*
X113500000Y-145000000D01*
X109000000Y-150000000D02*
X100000000Y-150000000D01*
X110000000Y-97000000D02*
X110000000Y-105500000D01*
X110000000Y-105500000D02*
X104000000Y-105500000D01*
X113500000Y-140000000D02*
X113500000Y-145000000D01*
X116000000Y-62000000D02*
X116000000Y-69000000D01*
X116000000Y-69000000D02*
X78500000Y-69000000D01*
X122500000Y-56000000D02*
X122500000Y-62000000D01*
X122500000Y-62000000D02*
X116000000Y-62000000D01*
X123500000Y-140000000D02*
X113500000Y-140000000D01*
X123500000Y-140000000D02*
X123500000Y-134500000D01*
X127000000Y-129000000D02*
X127000000Y-134500000D01*
X127000000Y-129000000D02*
X131500000Y-129000000D01*
X127000000Y-134500000D02*
X123500000Y-134500000D01*
X127500000Y-48000000D02*
X127500000Y-56000000D01*
X127500000Y-56000000D02*
X122500000Y-56000000D01*
X131500000Y-124000000D02*
X131500000Y-129000000D01*
X133500000Y-38500000D02*
X133500000Y-48000000D01*
X133500000Y-48000000D02*
X127500000Y-48000000D01*
X138500000Y-38500000D02*
X133500000Y-38500000D01*
X139000000Y-124000000D02*
X131500000Y-124000000D01*
X139000000Y-124000000D02*
X149500000Y-124000000D01*
X144000000Y-38500000D02*
X138500000Y-38500000D01*
X144000000Y-48500000D02*
X144000000Y-38500000D01*
X149500000Y-48500000D02*
X144000000Y-48500000D01*
X149500000Y-57500000D02*
X149500000Y-48500000D01*
X149500000Y-124000000D02*
X149500000Y-128500000D01*
X149500000Y-128500000D02*
X154500000Y-128500000D01*
X154500000Y-128500000D02*
X154500000Y-133500000D01*
X154500000Y-133500000D02*
X161000000Y-133500000D01*
X155000000Y-57500000D02*
X149500000Y-57500000D01*
X155000000Y-64000000D02*
X155000000Y-57500000D01*
X161000000Y-133500000D02*
X161000000Y-140000000D01*
X161000000Y-140000000D02*
X166000000Y-140000000D01*
X161500000Y-64000000D02*
X155000000Y-64000000D01*
X161500000Y-69500000D02*
X161500000Y-64000000D01*
X166000000Y-140000000D02*
X166000000Y-146000000D01*
X166000000Y-146000000D02*
X172000000Y-146000000D01*
X167500000Y-103000000D02*
X171500000Y-103000000D01*
X167500000Y-109000000D02*
X167500000Y-103000000D01*
X171500000Y-98000000D02*
X176500000Y-98000000D01*
X171500000Y-103000000D02*
X171500000Y-98000000D01*
X171500000Y-109000000D02*
X167500000Y-109000000D01*
X171500000Y-123500000D02*
X171500000Y-109000000D01*
X172000000Y-146000000D02*
X172000000Y-150000000D01*
X172000000Y-150000000D02*
X184000000Y-150000000D01*
X176500000Y-91000000D02*
X182000000Y-91000000D01*
X176500000Y-98000000D02*
X176500000Y-91000000D01*
X177000000Y-123500000D02*
X171500000Y-123500000D01*
X177000000Y-132500000D02*
X177000000Y-123500000D01*
X182000000Y-84000000D02*
X188000000Y-84000000D01*
X182000000Y-91000000D02*
X182000000Y-84000000D01*
X183500000Y-132500000D02*
X177000000Y-132500000D01*
X184000000Y-150000000D02*
X183500000Y-132500000D01*
X188000000Y-79000000D02*
X193000000Y-79000000D01*
X188000000Y-84000000D02*
X188000000Y-79000000D01*
X193000000Y-75000000D02*
X198500000Y-75000000D01*
X193000000Y-79000000D02*
X193000000Y-75000000D01*
X198500000Y-69500000D02*
X161500000Y-69500000D01*
X198500000Y-75000000D02*
X198500000Y-69500000D01*
M02*
