%TF.GenerationSoftware,KiCad,Pcbnew,10.0.6*%
%TF.CreationDate,2026-10-08T22:27:00+01:00*%
%TF.ProjectId,Test,54657374-2e6b-4696-9361-645f70636258,rev?*%
%TF.SameCoordinates,Original*%
%TF.FileFunction,Soldermask,Top*%
%TF.FilePolarity,Negative*%
%FSLAX46Y46*%
G04 Gerber Fmt 4.6, Leading zero omitted, Abs format (unit mm)*
G04 Created by KiCad (PCBNEW 10.0.6) date 2026-10-08 22:27:00*
%MOMM*%
%LPD*%
G01*
G04 APERTURE LIST*
G04 Aperture macros list*
%AMRoundRect*
0 Rectangle with rounded corners*
0 $1 Rounding radius*
0 $2 $3 $4 $5 $6 $7 $8 $9 X,Y pos of 4 corners*
0 Add a 4 corners polygon primitive as box body*
4,1,4,$2,$3,$4,$5,$6,$7,$8,$9,$2,$3,0*
0 Add four circle primitives for the rounded corners*
1,1,$1+$1,$2,$3*
1,1,$1+$1,$4,$5*
1,1,$1+$1,$6,$7*
1,1,$1+$1,$8,$9*
0 Add four rect primitives between the rounded corners*
20,1,$1+$1,$2,$3,$4,$5,0*
20,1,$1+$1,$4,$5,$6,$7,0*
20,1,$1+$1,$6,$7,$8,$9,0*
20,1,$1+$1,$8,$9,$2,$3,0*%
G04 Aperture macros list end*
%ADD10RoundRect,0.152400X1.063600X0.609600X-1.063600X0.609600X-1.063600X-0.609600X1.063600X-0.609600X0*%
%ADD11C,1.524000*%
%ADD12RoundRect,0.152400X-1.063600X-0.609600X1.063600X-0.609600X1.063600X0.609600X-1.063600X0.609600X0*%
%ADD13R,1.500000X1.500000*%
%ADD14C,1.500000*%
%ADD15O,3.800000X2.900000*%
%ADD16R,1.700000X1.700000*%
%ADD17O,1.700000X1.700000*%
%ADD18C,1.700000*%
%ADD19C,4.000000*%
%ADD20C,2.200000*%
%ADD21C,1.400000*%
G04 APERTURE END LIST*
D10*
%TO.C,U1*%
X155165000Y-75960000D03*
D11*
X156000000Y-75960000D03*
D10*
X155165000Y-78500000D03*
D11*
X156000000Y-78500000D03*
D10*
X155165000Y-81040000D03*
D11*
X156000000Y-81040000D03*
D10*
X155165000Y-83580000D03*
D11*
X156000000Y-83580000D03*
D10*
X155165000Y-86120000D03*
D11*
X156000000Y-86120000D03*
D10*
X155165000Y-88660000D03*
D11*
X156000000Y-88660000D03*
D10*
X155165000Y-91200000D03*
D11*
X156000000Y-91200000D03*
X171240000Y-91200000D03*
D12*
X172075000Y-91200000D03*
D11*
X171240000Y-88660000D03*
D12*
X172075000Y-88660000D03*
D11*
X171240000Y-86120000D03*
D12*
X172075000Y-86120000D03*
D11*
X171240000Y-83580000D03*
D12*
X172075000Y-83580000D03*
D11*
X171240000Y-81040000D03*
D12*
X172075000Y-81040000D03*
D11*
X171240000Y-78500000D03*
D12*
X172075000Y-78500000D03*
D11*
X171240000Y-75960000D03*
D12*
X172075000Y-75960000D03*
%TD*%
D13*
%TO.C,U2*%
X132460000Y-63000000D03*
D14*
X135000000Y-63000000D03*
X137540000Y-63000000D03*
X140080000Y-63000000D03*
%TD*%
D15*
%TO.C,J1*%
X124648000Y-75500000D03*
X124648000Y-98614000D03*
X147000000Y-75500000D03*
X147000000Y-98614000D03*
D16*
X132014000Y-74865000D03*
D17*
X134554000Y-74865000D03*
X137094000Y-74865000D03*
X139634000Y-74865000D03*
%TD*%
D18*
%TO.C,SW1*%
X104840000Y-80000000D03*
D19*
X109920000Y-80000000D03*
D18*
X115000000Y-80000000D03*
D20*
X112460000Y-74920000D03*
X106110000Y-77460000D03*
%TD*%
D16*
%TO.C,J2*%
X148840000Y-116500000D03*
D18*
X151380000Y-116500000D03*
X153920000Y-116500000D03*
X156460000Y-116500000D03*
X159000000Y-116500000D03*
X161540000Y-116500000D03*
X164080000Y-116500000D03*
X166620000Y-116500000D03*
%TD*%
D21*
%TO.C,R1*%
X132880000Y-55000000D03*
X140500000Y-55000000D03*
%TD*%
D18*
%TO.C,SW2*%
X115840000Y-116000000D03*
D19*
X120920000Y-116000000D03*
D18*
X126000000Y-116000000D03*
D20*
X123460000Y-110920000D03*
X117110000Y-113460000D03*
%TD*%
M02*
