%TF.GenerationSoftware,KiCad,Pcbnew,10.0.6*%
%TF.CreationDate,2026-10-08T22:27:00+01:00*%
%TF.ProjectId,Test,54657374-2e6b-4696-9361-645f70636258,rev?*%
%TF.SameCoordinates,Original*%
%TF.FileFunction,Copper,L2,Bot*%
%TF.FilePolarity,Positive*%
%FSLAX46Y46*%
G04 Gerber Fmt 4.6, Leading zero omitted, Abs format (unit mm)*
G04 Created by KiCad (PCBNEW 10.0.6) date 2026-10-08 22:27:00*
%MOMM*%
%LPD*%
G01*
G04 APERTURE LIST*
%TA.AperFunction,ComponentPad*%
%ADD10C,1.524000*%
%TD*%
%TA.AperFunction,ComponentPad*%
%ADD11R,1.500000X1.500000*%
%TD*%
%TA.AperFunction,ComponentPad*%
%ADD12C,1.500000*%
%TD*%
%TA.AperFunction,ComponentPad*%
%ADD13R,1.700000X1.700000*%
%TD*%
%TA.AperFunction,ComponentPad*%
%ADD14O,1.700000X1.700000*%
%TD*%
%TA.AperFunction,ComponentPad*%
%ADD15C,2.200000*%
%TD*%
%TA.AperFunction,ComponentPad*%
%ADD16C,1.700000*%
%TD*%
%TA.AperFunction,ComponentPad*%
%ADD17C,1.400000*%
%TD*%
%TA.AperFunction,Conductor*%
%ADD18C,0.200000*%
%TD*%
G04 APERTURE END LIST*
D10*
%TO.P,U1,1,D0_1*%
%TO.N,unconnected-(U1-D0-Pad1)*%
X156000000Y-75960000D03*
%TO.P,U1,2,D1_2*%
%TO.N,Net-(U1-D1)*%
X156000000Y-78500000D03*
%TO.P,U1,3,D2_3*%
%TO.N,Net-(U1-D2)*%
X156000000Y-81040000D03*
%TO.P,U1,4,D3_4*%
%TO.N,Net-(U1-D3)*%
X156000000Y-83580000D03*
%TO.P,U1,5,D4_5*%
%TO.N,Net-(J1-Pin_3)*%
X156000000Y-86120000D03*
%TO.P,U1,6,D5_6*%
%TO.N,Net-(J1-Pin_4)*%
X156000000Y-88660000D03*
%TO.P,U1,7,D6_7*%
%TO.N,unconnected-(U1-D6-Pad7)*%
X156000000Y-91200000D03*
%TO.P,U1,8,D7_8*%
%TO.N,unconnected-(U1-D7-Pad8)*%
X171240000Y-91200000D03*
%TO.P,U1,9,D8_9*%
%TO.N,unconnected-(U1-D8-Pad9)*%
X171240000Y-88660000D03*
%TO.P,U1,10,D9/BOOT_10*%
%TO.N,unconnected-(U1-D9{slash}BOOT-Pad10)*%
X171240000Y-86120000D03*
%TO.P,U1,11,D10_11*%
%TO.N,unconnected-(U1-D10-Pad11)*%
X171240000Y-83580000D03*
%TO.P,U1,12,3V3_OUT_12*%
%TO.N,Net-(J1-Pin_2)*%
X171240000Y-81040000D03*
%TO.P,U1,13,GND_13*%
%TO.N,Net-(J1-Pin_1)*%
X171240000Y-78500000D03*
%TO.P,U1,14,VBUS_14*%
%TO.N,unconnected-(U1-VBUS-Pad14)*%
X171240000Y-75960000D03*
%TD*%
D11*
%TO.P,U2,1,VDD_1*%
%TO.N,Net-(J1-Pin_2)*%
X132460000Y-63000000D03*
D12*
%TO.P,U2,2,DATA_2*%
%TO.N,Net-(U1-D1)*%
X135000000Y-63000000D03*
%TO.P,U2,3,NC_3*%
%TO.N,unconnected-(U2-NC-Pad3)*%
X137540000Y-63000000D03*
%TO.P,U2,4,GND_4*%
%TO.N,Net-(J2-Pin_2)*%
X140080000Y-63000000D03*
%TD*%
D13*
%TO.P,J1,1,Pin_1_1*%
%TO.N,Net-(J1-Pin_1)*%
X132014000Y-74865000D03*
D14*
%TO.P,J1,2,Pin_2_2*%
%TO.N,Net-(J1-Pin_2)*%
X134554000Y-74865000D03*
%TO.P,J1,3,Pin_3_3*%
%TO.N,Net-(J1-Pin_3)*%
X137094000Y-74865000D03*
%TO.P,J1,4,Pin_4_4*%
%TO.N,Net-(J1-Pin_4)*%
X139634000Y-74865000D03*
%TD*%
D15*
%TO.P,SW1,1,1_1*%
%TO.N,Net-(U1-D2)*%
X112460000Y-74920000D03*
%TO.P,SW1,2,2_2*%
%TO.N,Net-(J1-Pin_1)*%
X106110000Y-77460000D03*
%TD*%
D13*
%TO.P,J2,1,Pin_1_1*%
%TO.N,Net-(J1-Pin_2)*%
X148840000Y-116500000D03*
D16*
%TO.P,J2,2,Pin_2_2*%
%TO.N,Net-(J2-Pin_2)*%
X151380000Y-116500000D03*
%TO.P,J2,3,Pin_3_3*%
%TO.N,Net-(J1-Pin_3)*%
X153920000Y-116500000D03*
%TO.P,J2,4,Pin_4_4*%
%TO.N,Net-(J1-Pin_4)*%
X156460000Y-116500000D03*
%TO.P,J2,5,Pin_5_5*%
%TO.N,unconnected-(J2-Pin_5-Pad5)*%
X159000000Y-116500000D03*
%TO.P,J2,6,Pin_6_6*%
%TO.N,unconnected-(J2-Pin_6-Pad6)*%
X161540000Y-116500000D03*
%TO.P,J2,7,Pin_7_7*%
%TO.N,unconnected-(J2-Pin_7-Pad7)*%
X164080000Y-116500000D03*
%TO.P,J2,8,Pin_8_8*%
%TO.N,unconnected-(J2-Pin_8-Pad8)*%
X166620000Y-116500000D03*
%TD*%
D17*
%TO.P,R1,1*%
%TO.N,Net-(J1-Pin_2)*%
X132880000Y-55000000D03*
%TO.P,R1,2*%
%TO.N,Net-(U1-D1)*%
X140500000Y-55000000D03*
%TD*%
D15*
%TO.P,SW2,1,1_1*%
%TO.N,Net-(U1-D3)*%
X123460000Y-110920000D03*
%TO.P,SW2,2,2_2*%
%TO.N,Net-(J1-Pin_1)*%
X117110000Y-113460000D03*
%TD*%
%TO.N,Net-(J1-Pin_4)*%
D18*
X154000000Y-94000000D02*
X153000000Y-94000000D01*
X139030000Y-62565075D02*
X139645075Y-61950000D01*
X153000000Y-88500000D02*
X153160000Y-88660000D01*
X157462000Y-87198000D02*
X156000000Y-88660000D01*
X157462000Y-82974420D02*
X157462000Y-87198000D01*
X156500000Y-96500000D02*
X154000000Y-94000000D01*
X156460000Y-116500000D02*
X156460000Y-96540000D01*
X139634000Y-74865000D02*
X139030000Y-74261000D01*
X150749372Y-82118000D02*
X156605581Y-82118000D01*
X153000000Y-94000000D02*
X153000000Y-88500000D01*
X150749372Y-72184447D02*
X150749372Y-82118000D01*
X153160000Y-88660000D02*
X156000000Y-88660000D01*
X140514925Y-61950000D02*
X150749372Y-72184447D01*
X156460000Y-96540000D02*
X156500000Y-96500000D01*
X139030000Y-74261000D02*
X139030000Y-62565075D01*
X139645075Y-61950000D02*
X140514925Y-61950000D01*
X156605581Y-82118000D02*
X157462000Y-82974420D01*
%TO.N,Net-(J1-Pin_2)*%
X170000000Y-120500000D02*
X170000000Y-112500000D01*
X175000000Y-81000000D02*
X174960000Y-81040000D01*
X162000000Y-104000000D02*
X170500000Y-95500000D01*
X175000000Y-95000000D02*
X175000000Y-81000000D01*
X170500000Y-95500000D02*
X174500000Y-95500000D01*
X169000000Y-111500000D02*
X162000000Y-111500000D01*
X148840000Y-116500000D02*
X148840000Y-120340000D01*
X132880000Y-62580000D02*
X132460000Y-63000000D01*
X174500000Y-95500000D02*
X175000000Y-95000000D01*
X174960000Y-81040000D02*
X171240000Y-81040000D01*
X132460000Y-63000000D02*
X132460000Y-67960000D01*
X162000000Y-111500000D02*
X162000000Y-104000000D01*
X134554000Y-70054000D02*
X134554000Y-74865000D01*
X170000000Y-112500000D02*
X169000000Y-111500000D01*
X149000000Y-120500000D02*
X170000000Y-120500000D01*
X132460000Y-67960000D02*
X134554000Y-70054000D01*
X148840000Y-120340000D02*
X149000000Y-120500000D01*
X132880000Y-55000000D02*
X132880000Y-62580000D01*
%TO.N,Net-(J1-Pin_3)*%
X152500000Y-96000000D02*
X152000000Y-96000000D01*
X152000000Y-86000000D02*
X152120000Y-86120000D01*
X154000000Y-97500000D02*
X152500000Y-96000000D01*
X153920000Y-97580000D02*
X154000000Y-97500000D01*
X153920000Y-116500000D02*
X153920000Y-97580000D01*
X152120000Y-86120000D02*
X156000000Y-86120000D01*
X152000000Y-96000000D02*
X152000000Y-86000000D01*
%TO.N,Net-(J1-Pin_1)*%
X132014000Y-72514000D02*
X132014000Y-74865000D01*
X117110000Y-98610000D02*
X117110000Y-113460000D01*
X119540000Y-77460000D02*
X121000000Y-76000000D01*
X106110000Y-77460000D02*
X119540000Y-77460000D01*
X121000000Y-72500000D02*
X132000000Y-72500000D01*
X121000000Y-76000000D02*
X121000000Y-72500000D01*
X106110000Y-77460000D02*
X106110000Y-87610000D01*
X132000000Y-72500000D02*
X132014000Y-72514000D01*
X106110000Y-87610000D02*
X117110000Y-98610000D01*
%TO.N,Net-(J2-Pin_2)*%
X140080000Y-72014314D02*
X150583686Y-82518000D01*
X157062000Y-84435895D02*
X156439895Y-85058000D01*
X156439895Y-85058000D02*
X152376315Y-85058000D01*
X151600000Y-116280000D02*
X151380000Y-116500000D01*
X156439895Y-82518000D02*
X157062000Y-83140105D01*
X151600000Y-85834315D02*
X151600000Y-116280000D01*
X140080000Y-63000000D02*
X140080000Y-72014314D01*
X157062000Y-83140105D02*
X157062000Y-84435895D01*
X152376315Y-85058000D02*
X151600000Y-85834315D01*
X150583686Y-82518000D02*
X156439895Y-82518000D01*
%TO.N,Net-(U1-D1)*%
X140500000Y-56500000D02*
X138500000Y-58500000D01*
X135000000Y-59500000D02*
X135000000Y-63000000D01*
X140500000Y-55000000D02*
X140500000Y-56500000D01*
X135500000Y-58500000D02*
X135500000Y-59000000D01*
X138500000Y-58500000D02*
X135500000Y-58500000D01*
X135500000Y-59000000D02*
X135000000Y-59500000D01*
%TO.N,Net-(U1-D2)*%
X124880000Y-62500000D02*
X125000000Y-62500000D01*
X147000000Y-51500000D02*
X147000000Y-60500000D01*
X152500000Y-66000000D02*
X152500000Y-81000000D01*
X125000000Y-62500000D02*
X130000000Y-57500000D01*
X130000000Y-51000000D02*
X146500000Y-51000000D01*
X146500000Y-51000000D02*
X147000000Y-51500000D01*
X152500000Y-81000000D02*
X153000000Y-81000000D01*
X112460000Y-74920000D02*
X124880000Y-62500000D01*
X153000000Y-81000000D02*
X153040000Y-81040000D01*
X153040000Y-81040000D02*
X156000000Y-81040000D01*
X130000000Y-57500000D02*
X130000000Y-51000000D01*
X147000000Y-60500000D02*
X152500000Y-66000000D01*
%TO.N,Net-(U1-D3)*%
X151000000Y-83500000D02*
X151080000Y-83580000D01*
X123460000Y-110920000D02*
X123460000Y-105540000D01*
X123460000Y-105540000D02*
X126500000Y-102500000D01*
X151080000Y-83580000D02*
X156000000Y-83580000D01*
X151000000Y-102500000D02*
X151000000Y-83500000D01*
X126500000Y-102500000D02*
X151000000Y-102500000D01*
%TD*%
M02*
